<svg xmlns="http://www.w3.org/2000/svg" width="164.787" height="26.824" viewBox="0 0 164.787 26.824">
  <path id="Path_59" data-name="Path 59" d="M11.881-5.154H5.236L3.637,0H1.107L7.533-19.906H9.652L15.969,0H13.453ZM5.92-7.355h5.291L8.586-16Zm22.955-7.711q.355,0,.738.021t.731.068q.349.048.643.116a2.954,2.954,0,0,1,.485.15l-.342,2.475a13.48,13.48,0,0,0-1.4-.239,12.32,12.32,0,0,0-1.388-.075,4.752,4.752,0,0,0-2.878.807,4.656,4.656,0,0,0-1.62,2.256V0H21.3V-14.793h2.406l.123,2.352A6.8,6.8,0,0,1,26-14.362,5.815,5.815,0,0,1,28.875-15.066ZM35.52-7.52a10.869,10.869,0,0,1,.4-3.042,7.157,7.157,0,0,1,1.169-2.386,5.458,5.458,0,0,1,1.859-1.559,5.347,5.347,0,0,1,2.475-.561,5.583,5.583,0,0,1,2.4.485,4.844,4.844,0,0,1,1.757,1.4l.123-1.613H48V-.314a6.9,6.9,0,0,1-.458,2.6,5.464,5.464,0,0,1-1.285,1.928,5.475,5.475,0,0,1-1.976,1.2,7.517,7.517,0,0,1-2.543.41,7.671,7.671,0,0,1-1.312-.13,7.965,7.965,0,0,1-1.5-.424,6.9,6.9,0,0,1-1.463-.786,4.874,4.874,0,0,1-1.21-1.217L37.57,1.75a6.479,6.479,0,0,0,.957.95,4.929,4.929,0,0,0,1,.622,4.619,4.619,0,0,0,1.012.335,5.081,5.081,0,0,0,1.012.1,4.8,4.8,0,0,0,1.627-.26,3.385,3.385,0,0,0,1.237-.759A3.293,3.293,0,0,0,45.2,1.5a4.864,4.864,0,0,0,.273-1.7V-1.463A4.936,4.936,0,0,1,43.729-.171,5.718,5.718,0,0,1,41.4.273,5.184,5.184,0,0,1,38.951-.3,5.473,5.473,0,0,1,37.1-1.887,7.521,7.521,0,0,1,35.93-4.272a10.3,10.3,0,0,1-.41-2.96Zm2.529.287a9.037,9.037,0,0,0,.226,2.051,5.241,5.241,0,0,0,.711,1.709A3.613,3.613,0,0,0,40.223-2.3a3.574,3.574,0,0,0,1.8.431A4.128,4.128,0,0,0,43.21-2.03a3.332,3.332,0,0,0,.943-.444,3.652,3.652,0,0,0,.745-.684,4.835,4.835,0,0,0,.574-.875v-6.781a4.614,4.614,0,0,0-.574-.848,3.6,3.6,0,0,0-.752-.663,3.578,3.578,0,0,0-.943-.437,3.954,3.954,0,0,0-1.148-.157,3.6,3.6,0,0,0-1.825.438A3.633,3.633,0,0,0,38.985-11.3a5.318,5.318,0,0,0-.711,1.723,9.126,9.126,0,0,0-.226,2.058Zm24.336,5.2a5.268,5.268,0,0,1-1.846,1.7,5.224,5.224,0,0,1-2.557.608,5.832,5.832,0,0,1-2.105-.362,4.037,4.037,0,0,1-1.613-1.128,5.249,5.249,0,0,1-1.032-1.948A9.757,9.757,0,0,1,52.869-6v-8.791H55.4v8.818a8.7,8.7,0,0,0,.191,2,3.161,3.161,0,0,0,.574,1.265,2.051,2.051,0,0,0,.937.663,3.908,3.908,0,0,0,1.278.191,4.45,4.45,0,0,0,2.5-.629,3.816,3.816,0,0,0,1.415-1.7V-14.793h2.543V0h-2.3ZM89.168-19.906l3.24,9.953,3.5-9.953h3.145V0H96.592V-7.943l.205-8.312L93.119-5.537H91.67L88.293-15.969,88.5-7.943V0H86.037V-19.906ZM112.916,0a2.755,2.755,0,0,1-.239-.718,7.839,7.839,0,0,1-.13-.9,7.08,7.08,0,0,1-.854.725,6.073,6.073,0,0,1-1.039.6,6.4,6.4,0,0,1-1.21.41,5.986,5.986,0,0,1-1.367.15,6.248,6.248,0,0,1-2.126-.342,4.969,4.969,0,0,1-1.613-.923,4.024,4.024,0,0,1-1.025-1.381,4.142,4.142,0,0,1-.362-1.729,4.49,4.49,0,0,1,.485-2.133,4.228,4.228,0,0,1,1.374-1.524,6.4,6.4,0,0,1,2.14-.909,11.979,11.979,0,0,1,2.8-.3h2.762v-1.162a2.839,2.839,0,0,0-.246-1.2,2.572,2.572,0,0,0-.7-.909,3.2,3.2,0,0,0-1.1-.581,4.824,4.824,0,0,0-1.456-.205,4.388,4.388,0,0,0-1.347.191,3.3,3.3,0,0,0-1,.506,2.249,2.249,0,0,0-.636.745,1.906,1.906,0,0,0-.226.9H103.25a3.55,3.55,0,0,1,.417-1.586,4.474,4.474,0,0,1,1.162-1.4,6.052,6.052,0,0,1,1.846-1,7.4,7.4,0,0,1,2.468-.383,8.506,8.506,0,0,1,2.338.308,5.316,5.316,0,0,1,1.866.93,4.4,4.4,0,0,1,1.237,1.552,4.926,4.926,0,0,1,.451,2.174v6.877a9.616,9.616,0,0,0,.137,1.565,6.952,6.952,0,0,0,.383,1.442V0Zm-4.471-1.928a4.815,4.815,0,0,0,1.381-.191A5.116,5.116,0,0,0,111-2.625a4.245,4.245,0,0,0,.909-.718,3.5,3.5,0,0,0,.6-.841V-7.178h-2.352a7.42,7.42,0,0,0-3.445.656,2.183,2.183,0,0,0-1.23,2.064,2.717,2.717,0,0,0,.185,1.012,2.125,2.125,0,0,0,.554.8,2.626,2.626,0,0,0,.93.526A4.018,4.018,0,0,0,108.445-1.928ZM124.428-6.9l-1.859,1.791V0h-2.543V-21h2.543V-8.148l1.654-1.777,4.854-4.867h3.076l-5.988,6.166L133.068,0h-3.213ZM143.336.273a7.506,7.506,0,0,1-2.864-.533,6.5,6.5,0,0,1-2.235-1.49,6.817,6.817,0,0,1-1.449-2.27,7.7,7.7,0,0,1-.52-2.857v-.574a8.464,8.464,0,0,1,.574-3.206,7.351,7.351,0,0,1,1.524-2.393,6.651,6.651,0,0,1,2.16-1.5,6.232,6.232,0,0,1,2.481-.52,6.6,6.6,0,0,1,2.8.554,5.487,5.487,0,0,1,1.989,1.531,6.533,6.533,0,0,1,1.183,2.3,10.146,10.146,0,0,1,.39,2.871v1.135H138.8a5.81,5.81,0,0,0,.39,1.9,4.936,4.936,0,0,0,.957,1.552A4.422,4.422,0,0,0,141.6-2.174a4.5,4.5,0,0,0,1.873.383,5.144,5.144,0,0,0,2.406-.547,5.22,5.22,0,0,0,1.75-1.449l1.545,1.2a5.869,5.869,0,0,1-.923,1.073,6.371,6.371,0,0,1-1.278.909,7.193,7.193,0,0,1-1.641.636A7.884,7.884,0,0,1,143.336.273Zm-.328-13.262a3.783,3.783,0,0,0-1.449.28,3.781,3.781,0,0,0-1.23.82,4.678,4.678,0,0,0-.923,1.326,6.3,6.3,0,0,0-.526,1.812h7.957v-.191a5.648,5.648,0,0,0-.28-1.463,4.076,4.076,0,0,0-.7-1.3,3.523,3.523,0,0,0-1.169-.93A3.676,3.676,0,0,0,143.008-12.988ZM163.3-15.066q.355,0,.738.021t.731.068q.349.048.643.116a2.954,2.954,0,0,1,.485.15l-.342,2.475a13.48,13.48,0,0,0-1.4-.239,12.32,12.32,0,0,0-1.388-.075,4.752,4.752,0,0,0-2.878.807,4.656,4.656,0,0,0-1.62,2.256V0h-2.543V-14.793h2.406l.123,2.352a6.8,6.8,0,0,1,2.167-1.921A5.815,5.815,0,0,1,163.3-15.066Z" transform="translate(-1.107 21)"/>
</svg>
